# xmcd CD database file
#
# Track frame offsets:
#	150
#	20465
#	40047
#	55235
#	72195
#	87310
#	101257
#	118777
#	133940
#	151710
#	169077
#	183972
#	204655
#	220582
#	239915
#	255437
#
# Disc length: 3732 seconds
#
# Revision: 1
# Processed by: cddbd v1.5.2PL0 Copyright (c) Steve Scherf et al.
# Submitted via: CDex 1.70beta3
#
DISCID=d80e9210
DTITLE=Steps - Gold Greatest Hits
DYEAR=2002
DGENRE=Pop
TTITLE0=Tragedy
TTITLE1=One For Sorrow
TTITLE2=Stomp
TTITLE3=Deeper Shade Of Blue
TTITLE4=Love's Got A Hold On My Heart
TTITLE5=Last Thing On My Mind
TTITLE6=Summer Of Love
TTITLE7=5,6,7,8
TTITLE8=Chain Reaction
TTITLE9=Baby Don't Dance
TTITLE10=It's The Way You Make Me Feel
TTITLE11=After The Love Is Gone
TTITLE12=Say You'll Be Mine
TTITLE13=Only In My Dreams
TTITLE14=Words Are Not Enough
TTITLE15=5,6,7,8 W.I.P. 2002 Remix
EXTD=YEAR: 2002
EXTT0=
EXTT1=
EXTT2=
EXTT3=
EXTT4=
EXTT5=
EXTT6=
EXTT7=
EXTT8=
EXTT9=
EXTT10=
EXTT11=
EXTT12=
EXTT13=
EXTT14=
EXTT15=
PLAYORDER=
